<?xml version="1.0" encoding="UTF-8" standalone="no"?>
<!-- Created with Inkscape (http://www.inkscape.org/) -->

<svg
   xmlns:dc="http://purl.org/dc/elements/1.1/"
   xmlns:cc="http://creativecommons.org/ns#"
   xmlns:rdf="http://www.w3.org/1999/02/22-rdf-syntax-ns#"
   xmlns:svg="http://www.w3.org/2000/svg"
   xmlns="http://www.w3.org/2000/svg"
   xmlns:sodipodi="http://sodipodi.sourceforge.net/DTD/sodipodi-0.dtd"
   xmlns:inkscape="http://www.inkscape.org/namespaces/inkscape"
   width="20.579992mm"
   height="20.020069mm"
   viewBox="0 0 20.579992 20.020069"
   version="1.1"
   id="svg953"
   inkscape:version="0.92.3 (2405546, 2018-03-11)"
   sodipodi:docname="ZMPT101B_schematic.svg">
  <defs
     id="defs947" />
  <sodipodi:namedview
     id="base"
     pagecolor="#ffffff"
     bordercolor="#666666"
     borderopacity="1.0"
     inkscape:pageopacity="0.0"
     inkscape:pageshadow="2"
     inkscape:zoom="6.8987025"
     inkscape:cx="38.891324"
     inkscape:cy="37.833201"
     inkscape:document-units="mm"
     inkscape:current-layer="layer1"
     showgrid="false"
     fit-margin-top="0"
     fit-margin-left="0"
     fit-margin-right="0"
     fit-margin-bottom="0"
     inkscape:window-width="1366"
     inkscape:window-height="705"
     inkscape:window-x="1280"
     inkscape:window-y="30"
     inkscape:window-maximized="1" />
  <metadata
     id="metadata950">
    <rdf:RDF>
      <cc:Work
         rdf:about="">
        <dc:format>image/svg+xml</dc:format>
        <dc:type
           rdf:resource="http://purl.org/dc/dcmitype/StillImage" />
        <dc:title></dc:title>
      </cc:Work>
    </rdf:RDF>
  </metadata>
  <g
     inkscape:label="Camada 1"
     inkscape:groupmode="layer"
     id="layer1"
     transform="translate(-115.1981,-138.8233)">
    <rect
       style="fill:#ffffff;stroke:#010101;stroke-width:0.31757054;stroke-linecap:round"
       id="part_symbol"
       gorn="0.2.0"
       width="15.239295"
       height="14.687197"
       x="117.87183"
       y="141.48956" />
    <g
       transform="matrix(0.35277777,0,0,0.35277777,115.33183,138.94956)"
       id="pins"
       gorn="0.2.1">
      <line
         style="fill:none;stroke:#565656;stroke-width:0.69999999;stroke-linecap:round;stroke-linejoin:round"
         id="connector1pin"
         gorn="0.2.1.0"
         y1="48.833"
         y2="56.034"
         x1="28.799999"
         x2="28.799999" />
      <rect
         style="fill:none;stroke:none;stroke-width:0"
         id="connector10terminal"
         gorn="0.2.1.1"
         width="0.0014"
         height="0.015802"
         x="28.799299"
         y="56.376099" />
      <line
         style="fill:none;stroke:#565656;stroke-width:0.69999999;stroke-linecap:round;stroke-linejoin:round"
         id="connector3pin"
         gorn="0.2.1.2"
         y1="21.6"
         y2="21.6"
         x1="50.398998"
         x2="57.599998" />
      <rect
         style="fill:none;stroke:none;stroke-width:0"
         id="connector9terminal"
         gorn="0.2.1.3"
         width="0.015802"
         height="0.0014"
         x="57.942101"
         y="21.5993" />
      <line
         style="display:none;fill:none;stroke:#565656;stroke-width:0.69999999;stroke-linecap:round;stroke-linejoin:round"
         display="none"
         y1="43.200001"
         y2="43.200001"
         x1="0"
         x2="7.1999998"
         id="line11" />
      <line
         style="fill:none;stroke:#565656;stroke-width:0.69999999;stroke-linecap:round;stroke-linejoin:round"
         id="connector4pin"
         gorn="0.2.1.5"
         y1="7.2010002"
         y2="0"
         x1="28.799999"
         x2="28.799999" />
      <rect
         style="fill:none;stroke:none;stroke-width:0"
         id="connector8terminal"
         gorn="0.2.1.6"
         width="0.0014"
         height="0.015802"
         x="28.799299"
         y="-0.35790101" />
      <line
         x2="7.1769023"
         x1="-0.024098786"
         y2="21.6"
         y1="21.6"
         gorn="0.2.1.2"
         id="connector5pin"
         style="fill:none;stroke:#565656;stroke-width:0.69999999;stroke-linecap:round;stroke-linejoin:round" />
      <line
         style="fill:none;stroke:#565656;stroke-width:0.69999999;stroke-linecap:round;stroke-linejoin:round"
         id="connector6pin"
         gorn="0.2.1.2"
         y1="33.599998"
         y2="33.599998"
         x1="-0.024098786"
         x2="7.1769023" />
      <line
         x2="34.799999"
         x1="34.799999"
         y2="56.034"
         y1="48.833"
         gorn="0.2.1.0"
         id="connector2pin"
         style="fill:none;stroke:#565656;stroke-width:0.69999999;stroke-linecap:round;stroke-linejoin:round" />
    </g>
    <g
       transform="matrix(0.35277777,0,0,0.35277777,115.33183,138.94956)"
       id="pin_numbers"
       gorn="0.2.2">
      <g
         transform="translate(53.7744,20.0605)"
         id="g22">
        <g
           id="g20">
          <g
             id="g18">
            <text
               font-size="3"
               id="text16"
               style="font-size:3px;font-family:DroidSans;fill:#565656">3</text>
          </g>
          <g
             id="g962"
             transform="translate(-51)">
            <text
               id="text960"
               font-size="3"
               style="font-size:3px;font-family:DroidSans;fill:#565656">5</text>
          </g>
          <g
             transform="translate(-51,12)"
             id="g966">
            <text
               style="font-size:3px;font-family:DroidSans;fill:#565656"
               font-size="3"
               id="text964">6</text>
          </g>
        </g>
      </g>
      <g
         transform="translate(30.1621,3.873)"
         id="g30">
        <g
           id="g28">
          <g
             id="g26">
            <text
               font-size="3"
               id="text24"
               style="font-size:3px;font-family:DroidSans;fill:#565656">4</text>
          </g>
        </g>
      </g>
      <g
         transform="translate(30.1621,54.0508)"
         id="g38">
        <g
           id="g36">
          <g
             id="g34">
            <text
               font-size="3"
               id="text32"
               style="font-size:3px;font-family:DroidSans;fill:#565656">1</text>
          </g>
        </g>
      </g>
      <g
         id="g974"
         transform="translate(36.1621,54.0508)">
        <g
           id="g972">
          <g
             id="g970">
            <text
               id="text968"
               font-size="3"
               style="font-size:3px;font-family:DroidSans;fill:#565656">2</text>
          </g>
        </g>
      </g>
    </g>
    <g
       transform="matrix(0.35277777,0,0,0.35277777,115.33183,138.94956)"
       id="pin_labels"
       gorn="0.2.3">
      <g
         style="display:none"
         display="none"
         enable-background="new    "
         id="g47">
                path
   display=&quot;inline&quot;
   d=&quot;M43.772,50.009c0,0.247-0.029,0.473-0.089,0.677c-0.059,0.203-0.147,0.378-0.265,0.522c-0.117,0.146-0.263,0.257-0.437,0.337c-0.174,0.078-0.373,0.118-0.601,0.118c-0.239,0-0.446-0.04-0.62-0.118c-0.176-0.08-0.32-0.191-0.436-0.337c-0.115-0.145-0.201-0.319-0.256-0.523c-0.057-0.205-0.084-0.432-0.084-0.681s0.027-0.475,0.084-0.678c0.055-0.203,0.141-0.376,0.257-0.52s0.262-0.255,0.438-0.333s0.383-0.117,0.622-0.117c0.227,0,0.426,0.039,0.598,0.117c0.173,0.078,0.317,0.189,0.435,0.334s0.206,0.318,0.265,0.521C43.743,49.531,43.772,49.758,43.772,50.009z M41.42,50.009c0,0.2,0.019,0.381,0.057,0.541c0.038,0.161,0.096,0.297,0.175,0.409c0.078,0.112,0.178,0.197,0.299,0.257c0.12,0.06,0.265,0.089,0.432,0.089s0.312-0.029,0.432-0.089c0.121-0.06,0.221-0.145,0.299-0.257c0.079-0.112,0.136-0.248,0.173-0.409c0.036-0.16,0.055-0.341,0.055-0.541c0-0.202-0.019-0.383-0.055-0.543c-0.037-0.159-0.094-0.295-0.172-0.405s-0.176-0.195-0.297-0.255c-0.119-0.06-0.264-0.089-0.43-0.089c-0.168,0-0.313,0.029-0.434,0.089s-0.222,0.145-0.301,0.255s-0.138,0.246-0.176,0.405C41.438,49.626,41.42,49.807,41.42,50.009z&quot;
   fill=&quot;#565656&quot;
   id=&quot;path41&quot; /&gt;
                <path
   style="display:inline;fill:#565656"
   inkscape:connector-curvature="0"
   display="inline"
   d="m 45.996,51.619 -0.059,-0.323 h -0.022 c -0.036,0.063 -0.08,0.118 -0.131,0.164 -0.05,0.046 -0.106,0.084 -0.166,0.114 -0.06,0.03 -0.124,0.052 -0.19,0.066 -0.068,0.015 -0.137,0.022 -0.207,0.022 -0.133,0 -0.25,-0.017 -0.352,-0.051 -0.102,-0.033 -0.186,-0.086 -0.253,-0.158 -0.067,-0.071 -0.118,-0.163 -0.152,-0.274 -0.034,-0.111 -0.052,-0.244 -0.052,-0.397 v -1.575 h 0.4 v 1.553 c 0,0.19 0.038,0.334 0.116,0.429 0.077,0.096 0.197,0.143 0.36,0.143 0.118,0 0.218,-0.019 0.299,-0.057 0.08,-0.038 0.145,-0.095 0.194,-0.168 0.049,-0.074 0.084,-0.165 0.105,-0.274 0.021,-0.107 0.032,-0.232 0.032,-0.373 v -1.252 h 0.399 v 2.412 h -0.321 z"
   id="path43" />
<path
   style="display:inline;fill:#565656"
   inkscape:connector-curvature="0"
   display="inline"
   d="m 47.813,51.336 c 0.026,0 0.056,-0.002 0.089,-0.005 0.033,-0.003 0.064,-0.007 0.096,-0.011 0.032,-0.004 0.059,-0.01 0.084,-0.016 0.026,-0.006 0.046,-0.011 0.059,-0.016 v 0.304 c -0.02,0.009 -0.043,0.018 -0.072,0.026 -0.029,0.008 -0.062,0.017 -0.097,0.023 -0.035,0.006 -0.071,0.012 -0.11,0.015 -0.037,0.004 -0.075,0.006 -0.111,0.006 -0.092,0 -0.176,-0.012 -0.253,-0.035 -0.077,-0.023 -0.145,-0.063 -0.201,-0.121 -0.056,-0.057 -0.101,-0.134 -0.133,-0.231 -0.032,-0.097 -0.048,-0.22 -0.048,-0.368 V 49.508 H 46.775 V 49.33 l 0.341,-0.172 0.171,-0.506 h 0.23 v 0.555 h 0.606 v 0.301 h -0.606 v 1.399 c 0,0.143 0.023,0.249 0.069,0.321 0.047,0.072 0.122,0.108 0.227,0.108 z"
   id="path45" />
</g>
      <g
         enable-background="new    "
         id="g55"
         transform="translate(3)">
        <path
           d="m 25.829,45.188 h 1.063 v 1.575 c -0.081,0.026 -0.162,0.05 -0.244,0.07 -0.083,0.021 -0.167,0.038 -0.253,0.052 -0.086,0.014 -0.177,0.024 -0.272,0.032 -0.095,0.007 -0.198,0.011 -0.308,0.011 -0.23,0 -0.434,-0.038 -0.611,-0.115 -0.177,-0.077 -0.327,-0.187 -0.448,-0.33 -0.122,-0.143 -0.214,-0.316 -0.277,-0.521 -0.063,-0.205 -0.095,-0.434 -0.095,-0.688 0,-0.252 0.035,-0.479 0.104,-0.684 0.07,-0.203 0.171,-0.377 0.305,-0.52 0.133,-0.143 0.297,-0.253 0.493,-0.33 0.195,-0.076 0.418,-0.115 0.669,-0.115 0.163,0 0.318,0.017 0.468,0.049 0.15,0.032 0.289,0.079 0.418,0.141 l -0.158,0.355 c -0.053,-0.024 -0.11,-0.048 -0.17,-0.07 -0.061,-0.021 -0.124,-0.041 -0.188,-0.058 -0.064,-0.018 -0.131,-0.03 -0.199,-0.041 -0.068,-0.01 -0.136,-0.016 -0.204,-0.016 -0.179,0 -0.337,0.03 -0.475,0.089 -0.138,0.06 -0.253,0.146 -0.346,0.257 -0.093,0.111 -0.164,0.246 -0.212,0.406 -0.049,0.159 -0.073,0.34 -0.073,0.54 0,0.19 0.02,0.365 0.061,0.523 0.04,0.158 0.104,0.294 0.192,0.408 0.088,0.114 0.202,0.203 0.341,0.267 0.139,0.063 0.307,0.094 0.503,0.094 0.064,0 0.124,-0.002 0.177,-0.005 0.053,-0.004 0.103,-0.009 0.148,-0.015 0.045,-0.006 0.088,-0.013 0.129,-0.021 0.04,-0.009 0.079,-0.016 0.117,-0.023 v -0.958 h -0.657 v -0.359 z"
           id="path49"
           inkscape:connector-curvature="0"
           style="fill:#565656" />
        <path
           d="m 30.059,46.885 h -0.473 l -1.58,-2.658 h -0.018 c 0.009,0.112 0.016,0.225 0.022,0.336 0.006,0.095 0.011,0.194 0.014,0.299 0.004,0.104 0.006,0.197 0.006,0.281 v 1.742 h -0.378 v -3.213 h 0.468 l 1.573,2.646 h 0.016 c -0.005,-0.111 -0.01,-0.222 -0.016,-0.33 -0.002,-0.047 -0.004,-0.095 -0.006,-0.144 -0.002,-0.05 -0.004,-0.099 -0.006,-0.147 -0.002,-0.048 -0.004,-0.097 -0.005,-0.142 -10e-4,-0.046 -10e-4,-0.087 -10e-4,-0.126 v -1.758 h 0.383 v 3.214 z"
           id="path51"
           inkscape:connector-curvature="0"
           style="fill:#565656" />
        <path
           d="m 33.299,45.248 c 0,0.271 -0.035,0.509 -0.105,0.713 -0.07,0.204 -0.172,0.375 -0.306,0.512 -0.134,0.137 -0.297,0.24 -0.491,0.309 -0.193,0.069 -0.414,0.104 -0.66,0.104 h -0.804 v -3.213 h 0.894 c 0.225,0 0.428,0.034 0.609,0.102 0.181,0.068 0.336,0.167 0.463,0.3 0.128,0.133 0.227,0.297 0.296,0.493 0.069,0.196 0.104,0.422 0.104,0.68 z m -0.433,0.013 c 0,-0.214 -0.024,-0.398 -0.073,-0.555 -0.048,-0.156 -0.118,-0.284 -0.211,-0.386 -0.092,-0.101 -0.205,-0.176 -0.34,-0.225 -0.135,-0.05 -0.288,-0.074 -0.459,-0.074 h -0.442 v 2.512 h 0.356 c 0.387,0 0.678,-0.106 0.874,-0.32 0.196,-0.214 0.295,-0.531 0.295,-0.952 z"
           id="path53"
           inkscape:connector-curvature="0"
           style="fill:#565656" />
      </g>
      <g
         enable-background="new    "
         id="g63">
        <path
           style="fill:#565656"
           inkscape:connector-curvature="0"
           d="m 26.98,9.322 h 0.436 l -1.075,3.213 H 25.93 L 24.86,9.322 h 0.433 l 0.648,2.037 c 0.042,0.134 0.079,0.262 0.11,0.386 0.031,0.124 0.059,0.24 0.083,0.349 0.022,-0.108 0.05,-0.225 0.083,-0.349 0.033,-0.124 0.073,-0.257 0.119,-0.398 z"
           id="path57" />
        <path
           style="fill:#565656"
           inkscape:connector-curvature="0"
           d="m 29.068,9.637 c -0.157,0 -0.299,0.03 -0.426,0.089 -0.128,0.06 -0.236,0.146 -0.327,0.257 -0.09,0.111 -0.16,0.246 -0.208,0.406 -0.049,0.159 -0.074,0.34 -0.074,0.54 0,0.207 0.021,0.391 0.065,0.551 0.043,0.16 0.108,0.296 0.194,0.405 0.086,0.109 0.194,0.193 0.323,0.25 0.128,0.058 0.279,0.086 0.452,0.086 0.131,0 0.254,-0.013 0.371,-0.038 0.117,-0.025 0.233,-0.056 0.348,-0.089 v 0.355 c -0.057,0.022 -0.114,0.042 -0.172,0.059 -0.057,0.017 -0.116,0.03 -0.179,0.041 -0.062,0.01 -0.129,0.018 -0.2,0.022 -0.07,0.005 -0.149,0.008 -0.236,0.008 -0.24,0 -0.448,-0.04 -0.624,-0.118 -0.176,-0.08 -0.321,-0.191 -0.436,-0.337 -0.115,-0.145 -0.201,-0.319 -0.256,-0.522 -0.056,-0.204 -0.084,-0.43 -0.084,-0.677 0,-0.243 0.032,-0.466 0.096,-0.668 0.064,-0.202 0.158,-0.376 0.281,-0.521 0.124,-0.146 0.277,-0.258 0.46,-0.339 0.183,-0.08 0.393,-0.121 0.63,-0.121 0.158,0 0.309,0.017 0.453,0.049 0.143,0.032 0.273,0.079 0.389,0.141 L 29.736,9.809 C 29.644,9.762 29.544,9.722 29.435,9.688 29.329,9.654 29.206,9.637 29.068,9.637 Z"
           id="path59" />
        <path
           style="fill:#565656"
           inkscape:connector-curvature="0"
           d="m 31.692,9.637 c -0.157,0 -0.299,0.03 -0.427,0.089 -0.127,0.06 -0.236,0.146 -0.326,0.257 -0.09,0.111 -0.16,0.246 -0.209,0.406 -0.049,0.159 -0.073,0.34 -0.073,0.54 0,0.207 0.021,0.391 0.065,0.551 0.043,0.16 0.107,0.296 0.193,0.405 0.087,0.109 0.194,0.193 0.323,0.25 0.129,0.058 0.28,0.086 0.453,0.086 0.13,0 0.254,-0.013 0.371,-0.038 0.117,-0.025 0.233,-0.056 0.347,-0.089 v 0.355 c -0.057,0.022 -0.113,0.042 -0.171,0.059 -0.058,0.017 -0.116,0.03 -0.179,0.041 -0.063,0.01 -0.129,0.018 -0.2,0.022 -0.071,0.004 -0.149,0.008 -0.236,0.008 -0.24,0 -0.448,-0.04 -0.624,-0.118 -0.176,-0.08 -0.321,-0.191 -0.436,-0.337 -0.115,-0.145 -0.201,-0.319 -0.257,-0.522 -0.056,-0.204 -0.083,-0.43 -0.083,-0.677 0,-0.243 0.031,-0.466 0.096,-0.668 0.063,-0.202 0.157,-0.376 0.281,-0.521 0.123,-0.146 0.277,-0.258 0.46,-0.339 0.183,-0.08 0.394,-0.121 0.631,-0.121 0.158,0 0.309,0.017 0.452,0.049 0.143,0.032 0.273,0.079 0.389,0.141 L 32.361,9.809 C 32.268,9.762 32.169,9.722 32.06,9.688 31.953,9.654 31.83,9.637 31.692,9.637 Z"
           id="path61" />
      </g>
      <g
         enable-background="new    "
         id="g71">
        <path
           style="fill:#565656"
           inkscape:connector-curvature="0"
           d="m 42.07,21.281 c 0,0.247 -0.029,0.473 -0.089,0.677 -0.06,0.203 -0.147,0.378 -0.265,0.522 -0.117,0.146 -0.263,0.257 -0.436,0.337 -0.174,0.078 -0.375,0.118 -0.602,0.118 -0.238,0 -0.445,-0.04 -0.621,-0.118 -0.175,-0.08 -0.32,-0.191 -0.435,-0.337 -0.115,-0.145 -0.2,-0.319 -0.256,-0.523 -0.056,-0.205 -0.084,-0.432 -0.084,-0.681 0,-0.249 0.028,-0.475 0.084,-0.678 0.056,-0.203 0.142,-0.376 0.257,-0.52 0.115,-0.144 0.262,-0.255 0.438,-0.333 0.176,-0.078 0.383,-0.117 0.621,-0.117 0.228,0 0.428,0.039 0.6,0.117 0.172,0.078 0.316,0.189 0.434,0.334 0.118,0.145 0.205,0.318 0.265,0.521 0.06,0.204 0.089,0.43 0.089,0.681 z m -2.353,0 c 0,0.2 0.02,0.381 0.058,0.541 0.038,0.161 0.097,0.297 0.175,0.409 0.078,0.112 0.178,0.197 0.299,0.257 0.121,0.06 0.265,0.089 0.432,0.089 0.167,0 0.311,-0.029 0.432,-0.089 0.121,-0.06 0.221,-0.145 0.299,-0.257 0.078,-0.112 0.136,-0.248 0.173,-0.409 0.036,-0.16 0.055,-0.341 0.055,-0.541 0,-0.202 -0.019,-0.383 -0.055,-0.543 -0.037,-0.159 -0.095,-0.295 -0.172,-0.405 -0.077,-0.11 -0.177,-0.195 -0.296,-0.255 -0.121,-0.06 -0.264,-0.089 -0.432,-0.089 -0.166,0 -0.311,0.029 -0.433,0.089 -0.122,0.06 -0.222,0.145 -0.301,0.255 -0.079,0.11 -0.138,0.246 -0.176,0.405 -0.039,0.16 -0.058,0.341 -0.058,0.543 z"
           id="path65" />
        <path
           style="fill:#565656"
           inkscape:connector-curvature="0"
           d="m 45.085,19.675 v 2.083 c 0,0.167 -0.024,0.322 -0.072,0.466 -0.048,0.144 -0.121,0.268 -0.219,0.373 -0.097,0.105 -0.22,0.188 -0.366,0.249 -0.148,0.06 -0.321,0.09 -0.521,0.09 -0.188,0 -0.353,-0.028 -0.496,-0.085 -0.144,-0.056 -0.265,-0.136 -0.362,-0.24 -0.097,-0.104 -0.17,-0.229 -0.221,-0.375 -0.049,-0.146 -0.074,-0.308 -0.074,-0.486 v -2.07 h 0.411 v 2.092 c 0,0.257 0.063,0.455 0.19,0.596 0.126,0.141 0.317,0.211 0.574,0.211 0.13,0 0.242,-0.02 0.336,-0.059 0.094,-0.04 0.17,-0.096 0.23,-0.168 0.061,-0.071 0.105,-0.157 0.135,-0.257 0.03,-0.1 0.044,-0.208 0.046,-0.327 v -2.092 h 0.409 z"
           id="path67" />
        <path
           style="fill:#565656"
           inkscape:connector-curvature="0"
           d="M 46.865,22.892 H 46.454 V 20.04 h -0.919 v -0.361 h 2.246 v 0.361 h -0.916 z"
           id="path69" />
      </g>
      <g
         style="display:none"
         display="none"
         enable-background="new    "
         id="g81">
        <g
           style="display:inline"
           display="inline"
           id="g75">
          <path
             style="fill:#565656"
             inkscape:connector-curvature="0"
             d="M 10.563,44.372 H 9.399 v -0.225 l 0.378,-0.09 v -2.584 l -0.378,-0.09 v -0.225 h 1.165 v 0.225 l -0.378,0.09 v 2.584 l 0.378,0.09 v 0.225 z"
             id="path73" />
        </g>
        <g
           style="display:inline"
           display="inline"
           id="g79">
          <path
             style="fill:#565656"
             inkscape:connector-curvature="0"
             d="m 12.633,44.372 v -1.554 c 0,-0.19 -0.039,-0.333 -0.115,-0.429 -0.077,-0.095 -0.198,-0.143 -0.362,-0.143 -0.118,0 -0.218,0.02 -0.299,0.058 -0.081,0.038 -0.145,0.095 -0.194,0.169 -0.049,0.074 -0.084,0.166 -0.105,0.274 -0.021,0.108 -0.032,0.233 -0.032,0.374 v 1.25 h -0.4 V 41.96 h 0.325 l 0.057,0.324 h 0.022 c 0.037,-0.063 0.08,-0.117 0.131,-0.163 0.05,-0.046 0.105,-0.085 0.166,-0.115 0.06,-0.031 0.124,-0.054 0.191,-0.068 0.067,-0.014 0.136,-0.022 0.207,-0.022 0.268,0 0.47,0.07 0.605,0.21 0.135,0.141 0.203,0.364 0.203,0.672 v 1.575 h -0.4 z"
             id="path77" />
        </g>
      </g>
      <text
         font-size="6"
         x="9.5352821"
         y="35.437702"
         id="text88-7"
         style="font-size:4.62691116px;font-family:DroidSans;fill:#565656;fill-opacity:1;stroke-width:0.77115178">IN</text>
      <text
         style="font-size:4.62691116px;font-family:DroidSans;fill:#565656;fill-opacity:1;stroke-width:0.77115178"
         id="text958"
         y="23.437702"
         x="9.5352821"
         font-size="6">IN</text>
    </g>
    <g
       transform="matrix(0.35277777,0,0,0.35277777,121.92228,149.94561)"
       id="g96">
      <g
         id="g94">
        <g
           id="g92">
          <g
             enable-background="new    "
             id="g90"
             transform="translate(0,-1.5)">
            <text
               font-size="6"
               x="-4.0749335"
               y="0"
               id="text84"
               style="font-size:6px;font-family:DroidSans;fill:#010101">ZMPT101B</text>
            <text
               font-size="6"
               x="3.589"
               y="0"
               id="text86"
               style="font-size:6px;font-family:DroidSans;fill:#010101" />
            <text
               font-size="6"
               x="0.90700001"
               y="7.1999998"
               id="text88"
               style="font-size:6px;font-family:DroidSans;fill:#010101">Sensor</text>
          </g>
        </g>
      </g>
    </g>
  </g>
</svg>
