<?xml version="1.0" encoding="UTF-8" standalone="no"?>
<svg
   xmlns:dc="http://purl.org/dc/elements/1.1/"
   xmlns:cc="http://creativecommons.org/ns#"
   xmlns:rdf="http://www.w3.org/1999/02/22-rdf-syntax-ns#"
   xmlns:svg="http://www.w3.org/2000/svg"
   xmlns="http://www.w3.org/2000/svg"
   xmlns:sodipodi="http://sodipodi.sourceforge.net/DTD/sodipodi-0.dtd"
   xmlns:inkscape="http://www.inkscape.org/namespaces/inkscape"
   width="260.37766"
   height="260.37766"
   version="1.1"
   id="svg19"
   sodipodi:docname="Onion-Logo-Full.svg"
   inkscape:version="0.92.3 (2405546, 2018-03-11)"
   inkscape:export-filename="/dados/projetos/fritzing/onion/onion.png"
   inkscape:export-xdpi="90"
   inkscape:export-ydpi="90">
  <metadata
     id="metadata25">
    <rdf:RDF>
      <cc:Work
         rdf:about="">
        <dc:format>image/svg+xml</dc:format>
        <dc:type
           rdf:resource="http://purl.org/dc/dcmitype/StillImage" />
        <dc:title></dc:title>
      </cc:Work>
    </rdf:RDF>
  </metadata>
  <defs
     id="defs23" />
  <sodipodi:namedview
     pagecolor="#ffffff"
     bordercolor="#666666"
     borderopacity="1"
     objecttolerance="10"
     gridtolerance="10"
     guidetolerance="10"
     inkscape:pageopacity="0"
     inkscape:pageshadow="2"
     inkscape:window-width="1280"
     inkscape:window-height="991"
     id="namedview21"
     showgrid="false"
     fit-margin-top="0"
     fit-margin-left="0"
     fit-margin-right="0"
     fit-margin-bottom="0"
     inkscape:zoom="0.49875"
     inkscape:cx="-2.1899749"
     inkscape:cy="129.37765"
     inkscape:window-x="0"
     inkscape:window-y="4"
     inkscape:window-maximized="1"
     inkscape:current-layer="svg19" />
  <style
     type="text/css"
     id="style2">.st0{fill:#323232;}
	.st1{fill:#9B4B63;}
	.st2{fill:#FFFFFF;}</style>
  <g
     stroke="null"
     id="svg_8"
     transform="translate(-6.2,-19)">
    <path
       stroke="null"
       id="svg_9"
       d="M 186.27534,19 H 86.50231 C 42.14594,19 6.2,54.94594 6.2,99.30231 v 99.77303 c 0,44.35637 35.94594,80.30231 80.30231,80.30231 h 99.77303 c 44.35637,0 80.30231,-35.94594 80.30231,-80.30231 V 99.30231 C 266.57765,54.94594 230.63171,19 186.27534,19 Z"
       class="st1"
       inkscape:connector-curvature="0"
       style="fill:#9b4b63" />
  </g>
  <g
     stroke="null"
     id="svg_10"
     transform="translate(-6.2,-19)">
    <path
       stroke="null"
       id="svg_11"
       d="m 141.57334,35.01438 c -2.88028,2.0738 -11.1755,7.94958 -14.97748,16.01438 29.14847,88.13668 -41.47609,95.04936 6.45184,164.06096 -33.29608,-2.76507 -46.77581,-27.53551 -46.77581,-45.62369 0,-36.98284 27.18988,-46.54539 30.4158,-89.63443 -5.29972,-4.83888 -9.21691,-6.68226 -9.21691,-6.68226 -16.70565,47.58229 -51.7299,49.54088 -51.7299,96.31669 0,42.05214 36.40679,73.85047 80.30231,73.85047 46.77581,0 80.30231,-36.75242 80.30231,-73.85047 -0.11521,-62.21413 -60.02511,-50.69299 -74.77217,-134.45164 z m 12.09719,173.6235 c 18.54903,-26.72903 18.66424,-55.18624 0,-81.33921 40.09355,17.16649 40.09355,63.82709 0,81.33921 z"
       class="st2"
       inkscape:connector-curvature="0"
       style="fill:#ffffff" />
  </g>
</svg>
